<?xml version="1.0" encoding="iso-8859-1"?>
<!-- Generator: Adobe Illustrator 19.0.0, SVG Export Plug-In . SVG Version: 6.00 Build 0)  -->
<svg version="1.1" id="Capa_1" xmlns="http://www.w3.org/2000/svg" xmlns:xlink="http://www.w3.org/1999/xlink" x="0px" y="0px"
	 viewBox="0 0 490.8 490.8" style="enable-background:new 0 0 490.8 490.8;" xml:space="preserve">
<path style="fill:#CCD6DD;" d="M466.5,222.5c2,1,4.2,1.5,6.3,1.5c5.2,0,10.2-2.9,12.7-7.9c3.5-7,0.7-15.6-6.4-19.1l-34.8-17.4v-25.1
	l22.1,11.1c2,1,4.2,1.5,6.3,1.5c5.2,0,10.2-2.9,12.7-7.9c3.5-7,0.7-15.6-6.4-19.1l-34.8-17.4V67.6c0-7.9-6.4-14.2-14.2-14.2
	c-7.9,0-14.2,6.4-14.2,14.2v41l-22.1-11c-4.5-2.2-17.9-1.5-20.6-1.5h-28.4V53.3c0-7.9-6.4-14.2-14.2-14.2c-7.9,0-14.2,6.4-14.2,14.2
	V96h-28.4V53.3c0-7.9-6.4-14.2-14.2-14.2s-14.2,6.4-14.2,14.2V96h-28.4V53.3c0-7.9-6.4-14.2-14.2-14.2c-7.9,0-14.2,6.4-14.2,14.2V96
	h-28.4V53.7c0-7.9-6.4-14.2-14.2-14.2c-7.9,0-14.2,6.4-14.2,14.2V96h-28.6c-2.7,0-16.1-0.7-20.6,1.5l-22.1,11v-41
	c0-7.9-6.4-14.2-14.2-14.2c-7.9,0-14.2,6.4-14.2,14.2v55.2l-34.8,17.4c-7,3.5-9.9,12.1-6.4,19.1c2.5,5,7.5,7.9,12.7,7.9
	c2.1,0,4.3-0.5,6.3-1.5l22.1-11v25.1l-34.8,17.4c-7,3.5-9.9,12.1-6.4,19.1c2.5,5,7.5,7.9,12.7,7.9c2.1,0,4.3-0.5,6.3-1.5l22.1-11
	v25.1l-34.8,17.4c-7,3.5-9.9,12.1-6.4,19.1c2.5,5,7.5,7.9,12.7,7.9c2.1,0,4.3-0.5,6.3-1.5l22.1-11v25.1l-34.8,17.4
	c-7,3.5-9.9,12.1-6.4,19.1c2.5,5,7.5,7.9,12.7,7.9c2.1,0,4.3-0.5,6.3-1.5l22.1-11v25.1L11,368.1c-7,3.5-9.9,12.1-6.4,19.1
	c2.5,5,7.5,7.9,12.7,7.9c2.1,0,4.3-0.5,6.3-1.5l22.1-11v12.5c0,7.9,6.4,14.2,14.2,14.2c7.9,0,14.2-6.4,14.2-14.2v-26.8l31.8-15.9
	h39.3v26.5c0,7.9,6.4,14.2,14.2,14.2c7.8,0,14.2-6.4,14.2-14.2V352H202v28.4c0,7.9,6.4,14.2,14.2,14.2c7.9,0,14.2-6.4,14.2-14.2V352
	h28.4v30.5c0,7.9,6.4,14.2,14.2,14.2s14.2-6.4,14.2-14.2V352h28.4v30.5c0,7.9,6.4,14.2,14.2,14.2c7.9,0,14.2-6.4,14.2-14.2V352h39.3
	l31.8,15.9v26.8c0,7.9,6.4,14.2,14.2,14.2c7.9,0,14.2-6.4,14.2-14.2v-12.6l22.1,11c2,1,4.2,1.5,6.3,1.5c5.2,0,10.2-2.9,12.7-7.9
	c3.5-7,0.7-15.6-6.4-19.1l-34.8-17.4v-25.1l22.1,11c2,1,4.2,1.5,6.3,1.5c5.2,0,10.2-2.9,12.7-7.9c3.5-7,0.7-15.6-6.4-19.1
	l-34.8-17.4v-25.1l22.1,11c2,1,4.2,1.5,6.3,1.5c5.2,0,10.3-2.9,12.7-7.9c3.5-7,0.7-15.6-6.4-19.1l-34.8-17.4v-25.1L466.5,222.5z
	 M145.7,323.6h-28.4c-2.7,0-16.1-0.7-20.6,1.5l-22.1,11V311l31.8-15.9h39.3L145.7,323.6L145.7,323.6z M145.7,266.7h-28.4
	c-2.7,0-16.1-0.7-20.6,1.5l-22.1,11v-25.1l31.8-15.9h39.3L145.7,266.7L145.7,266.7z M145.7,209.8h-28.4c-2.7,0-16.1-0.7-20.6,1.5
	l-22.1,11v-25.1l31.8-15.9h39.3L145.7,209.8L145.7,209.8z M145.7,152.9h-28.4c-2.7,0-16.1-0.7-20.6,1.5l-22.1,11v-25.1l31.8-15.9
	h39.3L145.7,152.9L145.7,152.9z M202.6,323.5h-28.4v-28.4h28.4V323.5z M202.6,266.7h-28.4v-28.4h28.4V266.7z M202.6,209.8h-28.4
	v-28.4h28.4V209.8z M202.6,152.9h-28.4v-28.4h28.4V152.9z M259.5,323.5h-28.4v-28.4h28.4V323.5z M259.5,266.7h-28.4v-28.4h28.4
	V266.7z M259.5,209.8h-28.4v-28.4h28.4V209.8z M259.5,152.9h-28.4v-28.4h28.4V152.9z M316.4,323.5H288v-28.4h28.4V323.5z
	 M316.4,266.7H288v-28.4h28.4V266.7z M316.4,209.8H288v-28.4h28.4V209.8z M316.4,152.9H288v-28.4h28.4V152.9z M416,336.1L393.9,325
	c-4.5-2.2-17.9-1.5-20.6-1.5h-28.4v-28.4h39.3L416,311L416,336.1L416,336.1z M416,279.2l-22.1-11.1c-4.5-2.2-17.9-1.5-20.6-1.5
	h-28.4v-28.4h39.3l31.8,15.9L416,279.2L416,279.2z M416,222.3l-22.1-11c-4.5-2.2-17.9-1.5-20.6-1.5h-28.4v-28.4h39.3l31.8,15.9
	L416,222.3L416,222.3z M416,165.4l-22.1-11c-4.5-2.2-17.9-1.5-20.6-1.5h-28.4v-28.4h39.3l31.8,15.9L416,165.4L416,165.4z"/>
<path style="fill:#8C989F;" d="M484.7,429.4c-19.4-29-49.5-46.7-83-48.8c0-0.1,0-0.1,0-0.2V57.9c0-7.9-6.4-14.2-14.2-14.2
	s-14.2,6.4-14.2,14.2v322.5H117.2c0.1-0.6,0.1-1.3,0.1-1.9V53.7c0-7.9-6.4-14.2-14.2-14.2s-14.2,6.4-14.2,14.2v324.8
	c0,0.7,0.1,1.5,0.2,2.2c-33.9,2.3-63.8,19.7-83.2,48.7c-4.4,6.5-2.6,15.4,3.9,19.7c2.4,1.6,5.2,2.4,7.9,2.4c4.6,0,9.1-2.2,11.8-6.3
	c15.9-23.8,40.2-36.5,68.5-36.3h294.7c28.7-0.8,52.4,12.5,68.3,36.3c4.4,6.5,13.2,8.3,19.7,3.9C487.3,444.8,489.1,436,484.7,429.4z"
	/>
<path style="fill:#BE2032;" d="M387.5,35.6H103.1C46.2,35.6,0,81.9,0,138.7v298.7c0,9.8,8,17.8,17.8,17.8s17.8-8,17.8-17.8V138.7
	c0-37.2,30.3-67.6,67.6-67.6h284.4c37.2,0,67.6,30.3,67.6,67.6v298.7c0,9.8,8,17.8,17.8,17.8s17.8-8,17.8-17.8V138.7
	C490.6,81.8,444.4,35.6,387.5,35.6z"/>
<g>
</g>
<g>
</g>
<g>
</g>
<g>
</g>
<g>
</g>
<g>
</g>
<g>
</g>
<g>
</g>
<g>
</g>
<g>
</g>
<g>
</g>
<g>
</g>
<g>
</g>
<g>
</g>
<g>
</g>
</svg>
