<?xml version="1.0" encoding="iso-8859-1"?>
<!-- Generator: Adobe Illustrator 19.0.0, SVG Export Plug-In . SVG Version: 6.00 Build 0)  -->
<svg xmlns="http://www.w3.org/2000/svg" xmlns:xlink="http://www.w3.org/1999/xlink" version="1.1" id="Capa_1" x="0px" y="0px" viewBox="0 0 512 512" style="enable-background:new 0 0 512 512;" xml:space="preserve" width="512px" height="512px">
<g>
	<g>
		<path d="M432,0H80c-8.832,0-16,7.168-16,16v480c0,8.832,7.168,16,16,16h352c8.832,0,16-7.168,16-16V16C448,7.168,440.832,0,432,0z     M224,32h64v32h-64V32z M288,480h-64v-32h64V480z M416,480h-96v-48c0-8.832-7.168-16-16-16h-96c-8.832,0-16,7.168-16,16v48H96V272    h65.632c7.648,45.312,46.912,80,94.368,80s86.72-34.688,94.368-80H416V480z M317.728,272c-7.168,27.52-32,48-61.728,48    c-29.728,0-54.56-20.48-61.728-48H317.728z M194.272,240c7.168-27.52,32-48,61.728-48c29.728,0,54.56,20.48,61.728,48H194.272z     M416,240h-65.632c-7.648-45.312-46.912-80-94.368-80s-86.72,34.688-94.368,80H96V32h96v48c0,8.832,7.168,16,16,16h96    c8.832,0,16-7.168,16-16V32h96V240z" fill="#00acde"/>
	</g>
</g>
<g>
</g>
<g>
</g>
<g>
</g>
<g>
</g>
<g>
</g>
<g>
</g>
<g>
</g>
<g>
</g>
<g>
</g>
<g>
</g>
<g>
</g>
<g>
</g>
<g>
</g>
<g>
</g>
<g>
</g>
</svg>
